<svg  overflow="visible" viewBox="0 0 35 35" fill="none" xmlns="http://www.w3.org/2000/svg">
<g id="Frame">
<path id="Vector" d="M26.6 16.8H8.4C6.8536 16.8 5.6 18.0536 5.6 19.6V30.8C5.6 32.3464 6.8536 33.6 8.4 33.6H26.6C28.1464 33.6 29.4 32.3464 29.4 30.8V19.6C29.4 18.0536 28.1464 16.8 26.6 16.8Z" fill="#B5D0C4"/>
<path id="Vector_2" d="M2.8 18.2L17.5 5.6L32.2 18.2" stroke="#7A9E8E" stroke-width="3.5" stroke-linecap="round" stroke-linejoin="round"/>
<path id="Vector_3" d="M21.7 26.6C21.7 24.2804 19.8196 22.4 17.5 22.4C15.1804 22.4 13.3 24.2804 13.3 26.6V29.4C13.3 31.7196 15.1804 33.6 17.5 33.6C19.8196 33.6 21.7 31.7196 21.7 29.4V26.6Z" fill="white"/>
<path id="Vector_4" opacity="0.5" d="M12.6 19.6H9.8C9.0268 19.6 8.4 20.2268 8.4 21V22.4C8.4 23.1732 9.0268 23.8 9.8 23.8H12.6C13.3732 23.8 14 23.1732 14 22.4V21C14 20.2268 13.3732 19.6 12.6 19.6Z" fill="white"/>
<path id="Vector_5" opacity="0.5" d="M26.6 19.6H23.8C23.0268 19.6 22.4 20.2268 22.4 21V22.4C22.4 23.1732 23.0268 23.8 23.8 23.8H26.6C27.3732 23.8 28 23.1732 28 22.4V21C28 20.2268 27.3732 19.6 26.6 19.6Z" fill="white"/>
</g>
</svg>
